# xmcd CD database file
#
# Track frame offsets:
#	150
#	13261
#	33627
#	48539
#	61893
#	76002
#	87348
#	98996
#	109717
#	125557
#
# Disc length: 1831 seconds
#
# Revision: 0
# Processed by: cddbd v1.5.2PL0 Copyright (c) Steve Scherf et al.
# Submitted via: CDex 1.51
#
DISCID=7e07250a
DTITLE=Kenny Rogers and the First Edition - Texas Legend
DYEAR=1900
DGENRE=Country
TTITLE0=Ruby, Don't Take Your Love To Town
TTITLE1=Lay It Down
TTITLE2=Heed The Call
TTITLE3=Sleep Comes Easy
TTITLE4=Sunshine
TTITLE5=If Wishes Were Horses
TTITLE6=What Am I Gonna Do With The Rest Of My Life
TTITLE7=She Even Woke Me Up To Say Goodbye
TTITLE8=I Found A Reason
TTITLE9=Elvira
EXTD=
EXTT0=
EXTT1=
EXTT2=
EXTT3=
EXTT4=
EXTT5=
EXTT6=
EXTT7=
EXTT8=
EXTT9=
PLAYORDER=
